<svg version="1.2" xmlns="http://www.w3.org/2000/svg" viewBox="0 0 514 453" width="514" height="453">
	<title>like-2-svg</title>
	<style>
		.s0 { fill: #000000 } 
	</style>
	<path id="Layer" fill-rule="evenodd" class="s0" d="m513 147.5c0 42.6-16.6 82.2-52.3 124.7-31.9 38-77.8 77.1-131 122.4-19.8 16.9-40.3 34.3-62.1 53.4l-0.7 0.6c-2.8 2.5-6.4 3.7-9.9 3.7-3.5 0-7.1-1.2-9.9-3.7l-0.7-0.6c-21.8-19.1-42.3-36.5-62.1-53.4-53.2-45.3-99.1-84.4-131-122.4-35.7-42.5-52.3-82.1-52.3-124.7 0-39.1 13.3-75.7 37.4-103.1 25.2-28.6 60.2-44.4 98.6-44.4 53.9 0 88.1 32.2 107.3 59.2 4.9 7 9.2 14.1 12.7 20.7 3.5-6.7 7.7-13.7 12.7-20.7 19.2-27 53.4-59.2 107.3-59.2 38.4 0 73.4 15.8 98.6 44.4 24.1 27.4 37.4 64 37.4 103.1zm-30 0c0-31.8-10.6-61.3-29.9-83.2-19.4-22.1-46.5-34.3-76.1-34.3-41.1 0-67.7 25.3-82.6 46.6-13.5 19.1-20.6 38.3-23 45.7-2 6.2-7.8 10.4-14.3 10.4-6.5 0-12.3-4.2-14.3-10.4-2.4-7.4-9.5-26.6-23-45.7-15.1-21.3-41.7-46.6-82.8-46.6-29.6 0-56.7 12.2-76.1 34.3-19.3 21.8-29.9 51.4-29.9 83.2 0 77 68.7 135.6 172.8 224.3 17.1 14.5 34.7 29.5 53.2 45.6 18.5-16.1 36.1-31 53.2-45.6 104.1-88.7 172.8-147.3 172.8-224.3z"/>
</svg>