<?xml version="1.0" standalone="no"?>
<!DOCTYPE svg PUBLIC "-//W3C//DTD SVG 20010904//EN"
 "http://www.w3.org/TR/2001/REC-SVG-20010904/DTD/svg10.dtd">
<svg version="1.0" xmlns="http://www.w3.org/2000/svg"
 width="512.000000pt" height="497.000000pt" viewBox="0 0 512.000000 497.000000"
 preserveAspectRatio="xMidYMid meet">

<g transform="translate(0.000000,497.000000) scale(0.100000,-0.100000)"
fill="#000000" stroke="none">
<path d="M443 4605 c-85 -23 -153 -64 -220 -131 -72 -71 -115 -153 -138 -260
-18 -87 -18 -131 0 -219 42 -198 194 -355 383 -394 75 -16 4089 -16 4164 0
200 42 357 212 390 423 40 262 -120 517 -366 582 -77 21 -4136 19 -4213 -1z"/>
<path d="M446 2999 c-128 -30 -263 -146 -324 -278 -130 -282 1 -604 294 -717
47 -18 120 -19 2094 -22 1461 -2 2064 0 2110 8 267 46 448 316 400 599 -32
191 -179 360 -355 405 -53 14 -288 16 -2120 15 -1197 -1 -2076 -5 -2099 -10z"/>
<path d="M418 1381 c-216 -69 -367 -308 -344 -540 25 -238 193 -425 416 -460
83 -14 4026 -15 4119 -1 75 11 190 63 248 114 57 50 117 142 144 223 19 55 24
89 23 173 0 159 -46 271 -153 375 -62 60 -111 90 -190 115 -62 20 -86 20
-2135 19 -1980 0 -2074 -1 -2128 -18z"/>
</g>
</svg>
